<?xml version="1.0" encoding="UTF-8"?>
<svg version="1.1" viewBox="0 0 74.274 77.558" xmlns="http://www.w3.org/2000/svg">
 <path d="m33.171 0.5h7.92l0.206 6.6h7.714v7.92h-7.466l0.362 8.966q0.217-0.255 0.448-0.5c7.211-7.664 17.9-11.742 25.8-5.165 7.919 6.6 7.919 21.779-2.985 30.558-6.177 4.973-11.71 9.767-11.437 16.779l11.1 1.5v9.9h-55.394v-9.9l11.1-1.5c0.273-7.012-5.26-11.806-11.437-16.779-10.9-8.779-10.9-23.958-2.985-30.558 7.893-6.577 18.584-2.5 25.8 5.165q0.231 0.246 0.448 0.5l0.362-8.966h-7.476v-7.92h7.714zm-7.46 30.324c4.84 7.927 5.48 17.2 5.48 21.225-2.426 0-11.571-4.019-16.413-10.624-3.485-4.755-4.394-11.81-1.406-14.549s9.314-1.007 12.339 3.948zm22.84 0c-4.84 7.927-5.48 17.2-5.48 21.225 2.426 0 11.571-4.019 16.413-10.624 3.485-4.755 4.394-11.81 1.406-14.549s-9.314-1.007-12.339 3.948z" fill-rule="evenodd" stroke="#fff"/>
</svg>
