<svg xmlns="http://www.w3.org/2000/svg" xmlns:xlink="http://www.w3.org/1999/xlink" version="1.1" x="0px" y="0px" viewBox="0 0 100 125" enable-background="new 0 0 100 100" xml:space="preserve"><path d="M48.186,17.893l-6.322,2.171v9.495c0,0,0.737,4.105,3.378,6.638l9.516,0.004c2.641-2.532,3.381-6.642,3.381-6.642v-9.495  l-6.322-2.174L48.186,17.893z M51.814,16.89v-3.491l0.902-0.299l1.807,0.902l2.264-2.255L54.523,9.49l-1.807,0.902l-0.902-0.3V8.447  l0.902-1.224L50,5.418l-2.717,1.805l0.903,1.224v1.645l-0.903,0.3L45.477,9.49l-2.264,2.257l2.264,2.255l1.806-0.902l0.903,0.299  v3.494L51.814,16.89z M41.051,38.201h17.898v3.084H41.051V38.201z M44.8,43.285v30.143l10.4,0.008v-30.15H44.8z M41.951,75.436  v2.176l-5.515,4.527v9.034h13.565h13.563v-9.034l-5.516-4.527v-2.176H41.951z"/></svg>