<?xml version="1.0" encoding="UTF-8"?>
<svg version="1.1" viewBox="0 0 68.513 77.314" xmlns="http://www.w3.org/2000/svg">
 <path d="m41.836 14.793-11.925-13.909c-1.727 3.277-3.4 9.061-0.994 13.237a11.544 11.544 0 0 0-3.147 0.648c-5.508 2.21-11.551 7.921-14.522 19.8-0.86 3.44-2.408 5.087-4.247 7.045a27.548 27.548 0 0 0-5.653 8.135c-3.961 8.58 6.727 17.161 14.521 9.368a36.383 36.383 0 0 1 11.427-7.709c4.628-2.183 7.983-3.768 9.878-11.559 0.9 3.633 0.542 12.208-8.115 17.44s-10.46 16.26-10.279 19.525h49.233c0-31.045-4.11-57.865-26.177-62.021z" fill-rule="evenodd" stroke="#fff"/>
</svg>
