<svg xmlns="http://www.w3.org/2000/svg" xmlns:xlink="http://www.w3.org/1999/xlink" version="1.1" x="0px" y="0px" viewBox="0 0 100 125" enable-background="new 0 0 100 100" xml:space="preserve"><rect x="28.875" y="91.59" width="44.875" height="4.41"/><path d="M30.75,89.343H52.5V76.597h-16C36.5,76.597,29.25,80.579,30.75,89.343z"/><path d="M52.5,76.597h13.296c0,0,7.25,3.982,5.75,12.746h-21.75"/><rect x="36.5" y="63.955" width="28.875" height="10.098"/><path d="M36.5,63.955h28.875v-2.352h7.25V32.499c0,0-5.375-23.813-21.313-23.96C35.375,8.392,60.25,26.766,60.25,26.766  l-10.454,6.027v6.468L40,54.254C40,54.254,36.5,59.252,36.5,63.955z"/><path d="M32.75,27.207l-7.125,8.819v2.646l3.563,3.969c0,0,4.813,1.616,5.563-3.381c0.75-4.998,4.75-4.16,4.875-4.212  c0.125-0.051,4.717,4.358,10.171-1.08l3.329,1.911l9.125-7.203l-6.875-9.995l-5.579-8.914l-3.673,1.791l-10.748,7.857L32.75,27.207z  "/><path d="M51.5,11.092c0,0,0-4.848-6.54-7.109h-1.017c0,0-0.291,5.655,3.778,8.563"/></svg>