<svg xmlns="http://www.w3.org/2000/svg" data-name="Layer 1" viewBox="0 0 100 125" x="0px" y="0px"><title>HITAM</title><rect x="40" y="45" width="20" height="6"/><rect x="42.5" y="39" width="15" height="6"/><polygon points="62.5 74 62.5 69 37.5 69 37.5 74 35 77 35 85 65 85 65 77 62.5 74"/><path d="M38.07,24.06,38,23.64A1.45,1.45,0,0,0,38.07,24.06Z"/><path d="M64.35,33v0h0v0a13.5,13.5,0,0,0-2.57-5.2l-5.46,5.47a1,1,0,0,1-1.38,0l0,0a1,1,0,0,1,0-1.38l5.55-5.54A27.18,27.18,0,0,0,53,21.18V19.4c1-.46,1.61-1.13,1.61-1.9,0-1.38-2-2.5-4.5-2.5s-4.5,1.12-4.5,2.5A2.21,2.21,0,0,0,47,19.3v1.88C42.57,23.33,37.07,27.07,35.66,33v0h0v0a6.77,6.77,0,0,0-.3,2A6.94,6.94,0,0,0,41.63,42l0,0H58.34l0,0a6.94,6.94,0,0,0,6.28-6.91A6.77,6.77,0,0,0,64.35,33Z"/><path d="M42.75,57.18A101.47,101.47,0,0,1,40.57,68h19a101.47,101.47,0,0,1-2.18-10.82c-.26-1.79-.46-3.51-.62-5.18H43.37C43.21,53.67,43,55.39,42.75,57.18Z"/></svg>