<svg xmlns="http://www.w3.org/2000/svg" xmlns:xlink="http://www.w3.org/1999/xlink" version="1.1" x="0px" y="0px" viewBox="0 0 110 137.5" enable-background="new 0 0 110 110" xml:space="preserve"><g><path d="M75,86H35c-2.209,0-4,1.791-4,4s1.791,4,4,4h40c2.209,0,4-1.791,4-4S77.209,86,75,86z"/><path d="M38,84h34c2.209,0,4-1.791,4-4s-1.791-4-4-4H38c-2.209,0-4,1.791-4,4S35.792,84,38,84z"/><path d="M45.114,74h19.773c2.175,0,3.524-1.747,3-3.882L60.6,40.456C63.828,38.54,66,35.028,66,31c0-6.075-4.925-11-11-11   s-11,4.925-11,11c0,4.028,2.171,7.54,5.401,9.456l-7.288,29.662C41.588,72.253,42.938,74,45.114,74z"/></g></svg>