<svg xmlns="http://www.w3.org/2000/svg" xml:space="preserve" fill-rule="evenodd" clip-rule="evenodd" style="shape-rendering:geometricPrecision;text-rendering:geometricPrecision;image-rendering:optimizeQuality" viewBox="0 0 4148 11376.3"><defs/><path d="M2507 177a617 617 0 0 0-865 0 601 601 0 0 0 144 960c181 94 395 94 576 0a601 601 0 0 0 145-960zM1414 5481c-37 478-139 1221-317 1527h1955c-179-306-280-1049-318-1527-36-453-23-1134 142-1562H1273c165 428 177 1109 141 1562zM2955 3808c94 0 164-86 164-182v-441H1030v441c0 96 69 182 164 182h1761zM568 7521h3013c-25-218-196-402-417-402H984c-221 0-392 184-416 402zM550 7632A551 551 0 0 0 0 8181v920h4148v-920c0-302-247-549-549-549H550zM2288 1287a723 723 0 0 1-427 0l-301 1103c-412-226-729-390-1165-535 307 462 424 701 602 1207h2154c179-506 296-745 602-1207-435 145-752 309-1165 535l-300-1103z" class="fil0"/></svg>